# xmcd
#
# Track frame offsets:
# 205
# 23470
# 45187
# 81410
# 100787
# 119515
# 145720
# 168880
# 191372
# 216325
#
# Disc length: 3156 seconds
#
#
# Revision: 0
# Processed by: cddbd v1.5.1PL0 Copyright (c) Steve Scherf et al.
# Submitted via: FreeRIP 2.90 
#
DISCID=780c520a
DTITLE=The Interpid Spaniels - As Close As We Can Be
DYEAR=1994
DGENRE=Blues
TTITLE0=Wheels In Motion
TTITLE1=Madhouse
TTITLE2=Down On Me
TTITLE3=Trust Me
TTITLE4=Shakin' Your Tree
TTITLE5=Radio
TTITLE6=As Close As We Can Be
TTITLE7=Make It Right
TTITLE8=Dance With Me
TTITLE9=Just Another Day
EXTD=
EXTT0=
EXTT1=
EXTT2=
EXTT3=
EXTT4=
EXTT5=
EXTT6=
EXTT7=
EXTT8=
EXTT9=
PLAYORDER=
